<?xml version="1.0" encoding="utf-8"?>
<!-- Generator: Adobe Illustrator 25.1.0, SVG Export Plug-In . SVG Version: 6.00 Build 0)  -->
<svg version="1.1" id="Layer_1" xmlns="http://www.w3.org/2000/svg" xmlns:xlink="http://www.w3.org/1999/xlink" x="0px" y="0px"
	 viewBox="0 0 245 176.2" style="enable-background:new 0 0 245 176.2;" xml:space="preserve">
<path d="M214.8,22C184.6-0.6,155.9,0,155.9,0l-2.9,3.4C188.6,14.3,205.1,30,205.1,30C183.3,18,161.9,12.2,142,9.9
	c-15.1-1.7-29.6-1.3-42.4,0.4c-1.3,0-2.3,0.2-3.6,0.4c-7.3,0.6-25.2,3.4-47.6,13.2C40.7,27.5,36.1,30,36.1,30S53.5,13.4,91.2,2.5
	L89.1,0c0,0-28.7-0.6-58.9,22C30.2,22,0,76.8,0,144.3c0,0,17.6,30.4,64,31.9c0,0,7.8-9.4,14.1-17.4c-26.2-7.8-36.4-24.2-36.7-24.7
	c0.3,0.2,2.3,1.6,5.9,3.5c0.2,0.2,0.4,0.4,0.8,0.6c0.6,0.4,1.3,0.6,1.9,1c5.2,2.9,10.5,5.2,15.3,7.1c8.6,3.4,18.9,6.7,30.8,9
	c15.7,2.9,34.2,4,54.3,0.2c9.9-1.7,19.9-4.6,30.4-9c7.3-2.7,15.5-6.7,24.1-12.4c0,0-10.5,17.2-38,25c6.3,8,13.8,17,13.8,17
	c46.4-1.5,64.2-31.9,64.2-31.9C245,76.8,214.8,22,214.8,22z M83.3,124.8c-11.7,0-21.4-10.5-21.4-23.3s9.4-23.3,21.4-23.3
	c12,0,21.6,10.5,21.4,23.3C104.7,114.3,95.2,124.8,83.3,124.8z M159.8,124.8c-11.7,0-21.4-10.5-21.4-23.3s9.4-23.3,21.4-23.3
	c12,0,21.4,10.5,21.4,23.3S171.8,124.8,159.8,124.8z"/>
</svg>
