<?xml version="1.0" encoding="utf-8"?>
<!-- Generator: Adobe Illustrator 25.1.0, SVG Export Plug-In . SVG Version: 6.00 Build 0)  -->
<svg version="1.1" id="Layer_1" xmlns="http://www.w3.org/2000/svg" xmlns:xlink="http://www.w3.org/1999/xlink" x="0px" y="0px"
	 viewBox="0 0 1000 639.4" style="enable-background:new 0 0 1000 639.4;" xml:space="preserve">
<style type="text/css">
	.st0{fill:#DA0050;}
</style>
<g>
	<g>
		<path class="st0" d="M680.3,639.4H320.4C144.1,639.4,0.7,496,0.7,319.7S144.1,0,320.4,0h359.9C856.6,0,1000,143.4,1000,319.7
			S856.6,639.4,680.3,639.4z M320.4,104.8c-118.5,0-214.9,96.4-214.9,214.9s96.4,214.9,214.9,214.9h359.9
			c118.5,0,214.9-96.4,214.9-214.9s-96.4-214.9-214.9-214.9H320.4z"/>
	</g>
	<g>
		<path class="st0" d="M552.8,587H447.9v-64c0-83.2-67.7-150.8-150.8-150.8V267.3c141,0,255.7,114.7,255.7,255.7V587z"/>
	</g>
	<g>
		<path class="st0" d="M703.6,372.1c-141,0-255.7-114.7-255.7-255.7v-64h104.8v64c0,83.2,67.7,150.8,150.8,150.8V372.1z"/>
	</g>
</g>
</svg>
